<svg xmlns="http://www.w3.org/2000/svg" width="500" height="101" viewBox="0 0 500 101" fill="none"><path d="M131.758 84.8664C130.399 84.8664 129.266 83.7335 129.266 82.374V57.2229C129.266 55.0326 128.738 53.1444 127.379 51.5583C126.096 50.1232 124.359 49.3679 122.17 49.3679C117.716 49.3679 114.696 52.238 114.696 57.1474V82.2985C114.696 83.658 113.563 84.7909 112.205 84.7909H98.691C97.3321 84.7909 96.1997 83.658 96.1997 82.2985V36.3015C96.1997 34.942 97.3321 33.809 98.691 33.809H112.129C113.488 33.809 114.62 34.942 114.62 36.3015V40.229H114.696C118.471 35.1685 124.284 32.8271 129.644 32.8271C143.308 32.8271 147.762 44.1565 147.762 53.9752V82.4495C147.762 83.809 146.63 84.942 145.271 84.942H131.758V84.8664Z" fill="#7350FC"></path><path d="M170.562 63.9453C171.09 66.4378 172.298 68.4015 174.336 69.6855C176.224 71.1205 178.489 71.8758 181.131 71.8758C184.377 71.8758 187.246 70.4408 189.284 68.0239C189.888 67.2686 190.945 67.042 191.927 67.3441L202.647 71.045C204.157 71.5737 204.761 73.3864 203.93 74.7459C199.174 82.4498 190.794 86.0752 180.678 86.0752C175.695 86.0752 171.015 84.9423 166.711 82.6009C162.408 80.335 159.011 77.1628 156.52 73.0087C153.877 68.9302 152.669 64.3985 152.669 59.2625C152.669 54.4287 153.953 49.897 156.444 45.8184C158.935 41.8154 162.408 38.4921 166.56 36.1507C170.864 33.8849 175.393 32.752 180.3 32.752C185.208 32.752 189.662 33.8849 193.738 36.1507C197.815 38.3411 201.061 41.3622 203.326 45.3652C205.591 49.3683 206.799 53.8245 206.799 58.6583V58.7338C206.799 61.6794 204.459 64.0208 201.514 64.0208H170.562V63.9453ZM174.11 48.613C172.298 50.048 171.317 51.7852 170.788 53.8245H187.472C188.152 53.8245 188.68 53.1447 188.529 52.5405C187.472 48.764 184.226 46.5737 179.923 46.5737C177.885 46.5737 175.846 47.2535 174.11 48.613Z" fill="#7350FC"></path><path d="M228.692 74.0659L221.898 83.8846C221.445 84.5644 220.69 84.942 219.86 84.942H205.667C203.628 84.942 202.496 82.6006 203.704 81.0145L218.954 60.6218C219.633 59.7154 219.633 58.507 218.954 57.6762L204.006 37.8121C202.798 36.1505 203.93 33.8091 205.969 33.8091H220.388C221.218 33.8091 221.973 34.1867 222.426 34.8665L229.07 44.3076C230.051 45.7426 232.165 45.7426 233.147 44.3076L239.79 34.8665C240.243 34.1867 240.998 33.8091 241.828 33.8091H255.87C257.909 33.8091 259.041 36.1505 257.833 37.8121L242.81 57.7517C242.13 58.658 242.13 59.8665 242.81 60.7728L258.135 81.0145C259.343 82.6762 258.211 85.0176 256.172 85.0176H241.602C240.772 85.0176 240.017 84.6399 239.564 83.9601L232.769 74.1414C231.788 72.6308 229.674 72.6308 228.692 74.0659Z" fill="#7350FC"></path><path d="M300.865 82.6763C300.865 83.6581 300.261 84.5645 299.355 84.7911C297.015 85.4708 294.222 85.6974 291.127 85.6974C285.087 85.6974 280.18 84.0358 276.556 80.637C272.781 77.3137 271.045 72.4799 271.045 66.3621V51.1808C271.045 49.9723 270.064 48.9149 268.78 48.9149H263.42C262.212 48.9149 261.155 47.9331 261.155 46.6491V36.075C261.155 34.8666 262.137 33.8092 263.42 33.8092H269.158C270.366 33.8092 271.423 32.8273 271.423 31.5433V19.4587C271.423 18.2503 272.404 17.1929 273.687 17.1929H287.276C288.484 17.1929 289.541 18.1747 289.541 19.4587V31.5433C289.541 32.7518 290.523 33.8092 291.806 33.8092H299.28C300.488 33.8092 301.545 34.7911 301.545 36.075V46.7246C301.545 47.9331 300.563 48.9905 299.28 48.9905H291.806C290.598 48.9905 289.541 49.9723 289.541 51.2563V64.6249C289.541 68.5524 291.731 70.5917 296.185 70.5917C296.713 70.5917 297.468 70.5161 298.601 70.4406C299.884 70.3651 301.016 71.347 301.016 72.7065V82.6763H300.865Z" fill="#7350FC"></path><path d="M342.463 85.3198C340.424 85.3198 338.764 83.6581 338.764 81.6189V57.4497C338.764 55.2593 338.235 53.2956 336.876 51.7095C335.593 50.2745 333.856 49.5192 331.592 49.5192C327.062 49.5192 324.042 52.3893 324.042 57.3742V81.6189C324.042 83.6581 322.381 85.3198 320.343 85.3198H309.094C307.056 85.3198 305.395 83.6581 305.395 81.6189V37.4346C305.395 35.3953 307.056 33.7337 309.094 33.7337H320.267C322.306 33.7337 323.967 35.3953 323.967 37.4346V40.1536H324.042C327.817 35.0932 333.705 32.6763 339.066 32.6763C352.881 32.6763 357.411 44.0811 357.411 54.0509V81.6189C357.411 83.6581 355.75 85.3198 353.712 85.3198H342.463Z" fill="black"></path><path d="M369.867 40.2291C375.152 35.5464 382.475 32.6763 390.1 32.6763C397.649 32.6763 404.972 35.4708 410.181 40.0781C415.315 44.6098 418.712 51.7095 418.712 59.2624C418.712 66.9663 415.315 74.066 410.106 78.8998C404.821 83.6581 397.498 86.6038 389.722 86.6038C382.022 86.6038 374.699 83.8092 369.49 79.1264C364.356 74.4436 361.034 67.4195 361.034 59.7155C361.034 52.0116 364.507 44.9119 369.867 40.2291ZM379.757 59.4134C379.757 62.2835 380.738 64.7004 382.701 66.8152C384.589 69.0056 387.156 70.063 389.873 70.063C392.742 70.063 395.158 69.0056 397.121 66.8152C399.008 64.776 399.99 62.359 399.99 59.4134C399.99 56.6189 399.008 54.2019 397.121 52.1627C395.082 50.1234 392.667 49.066 389.873 49.066C387.08 49.066 384.589 50.1234 382.626 52.1627C380.738 54.2019 379.757 56.6189 379.757 59.4134Z" fill="black"></path><path d="M430.187 82.8271L415.919 38.5672C415.164 36.2258 416.9 33.7334 419.392 33.7334H430.112C431.773 33.7334 433.207 34.7908 433.66 36.3769L440.983 61.4524H441.059L449.363 36.3014C449.891 34.7908 451.25 33.8089 452.836 33.8089H462.801C464.386 33.8089 465.821 34.7908 466.274 36.3014L474.805 61.679H474.88L482.807 36.3769C483.26 34.8663 484.694 33.8089 486.28 33.8089H496.321C498.812 33.8089 500.624 36.2258 499.793 38.6428L485.449 82.8271C484.921 84.3376 483.562 85.395 481.977 85.395H469.595C468.01 85.395 466.576 84.3376 466.123 82.8271L457.894 57.7515H457.818L449.363 82.8271C448.834 84.3376 447.476 85.3195 445.89 85.3195H433.736C432.075 85.3195 430.716 84.3376 430.187 82.8271Z" fill="black"></path><path d="M59.132 84.3379C58.6035 83.5826 58.1505 82.9784 57.6976 82.2986C55.5837 78.9753 53.3944 75.7276 51.2805 72.3288C49.2422 69.0056 47.2038 65.6068 45.241 62.208C43.5801 59.3379 41.9947 56.3923 40.4848 53.4466C39.0504 50.5766 37.6915 47.7065 36.4081 44.7608C35.4267 42.5705 34.5962 40.3047 33.8413 38.0388C32.1804 33.0539 31.4255 27.9935 32.4824 22.782C33.5393 17.2684 36.1061 12.5101 40.0319 8.50706C42.6742 5.78803 45.8449 3.74876 49.3177 2.23818C51.658 1.25631 54.0738 0.65208 56.5651 0.274436C59.4339 -0.103207 62.2272 -0.103207 65.0205 0.349965C67.6628 0.727608 70.1542 1.4829 72.57 2.61583C76.7977 4.50404 80.3459 7.29861 83.2147 10.924C85.1776 13.4164 86.6874 16.211 87.7444 19.2321C89.1788 23.4617 89.4807 27.6914 88.8768 32.072C88.4993 34.9421 87.5179 37.7367 86.461 40.3802C84.8001 44.6098 82.6862 48.6128 80.4214 52.5403C78.3076 56.1657 76.1182 59.7155 73.8534 63.2654C71.5886 66.8152 69.1727 70.2895 66.7569 73.7639C64.3411 77.1627 61.8498 80.5614 59.3584 83.9602C59.3584 84.1868 59.283 84.1868 59.132 84.3379ZM42.8251 25.8031C42.7497 29.8817 43.4291 32.6763 44.939 35.2442C47.6568 40.0781 51.7335 42.9482 57.0936 44.1566C61.3213 45.063 65.398 44.4587 69.2482 42.495C73.7779 40.1536 76.7977 36.5282 78.1566 31.6188C79.5155 26.634 78.685 21.9512 75.8162 17.7216C73.0984 13.7185 69.2482 11.2261 64.5676 10.1687C60.3399 9.26235 56.1877 9.79105 52.3375 11.8303C46.3734 15.0025 43.2026 20.063 42.8251 25.8031Z" fill="black"></path><path d="M31.7274 100.048C31.1234 99.217 30.595 98.5372 30.0665 97.782C27.5752 94.1566 25.0839 90.5312 22.6681 86.8303C20.2522 83.1294 17.9874 79.4285 15.7226 75.6521C13.8352 72.4798 11.9478 69.3076 10.136 65.9844C8.47509 62.8877 6.88971 59.64 5.37982 56.3922C4.2474 53.9753 3.26597 51.4829 2.36004 48.9904C0.321689 43.4768 -0.584245 37.8877 0.397184 31.9965C1.45411 25.8031 4.17191 20.4406 8.47509 15.8333C11.4194 12.7366 14.8166 10.3953 18.6669 8.65809C21.2337 7.52516 23.876 6.76988 26.6693 6.3167C29.84 5.788 33.0108 5.788 36.1061 6.16565C39.0504 6.54329 41.8437 7.29858 44.637 8.50704C49.3931 10.5463 53.3943 13.4919 56.7161 17.495C58.9809 20.214 60.7173 23.3107 62.0007 26.7095C63.6616 31.3922 64.1145 36.1505 63.5861 40.9844C63.2841 44.2321 62.2272 47.3288 61.0948 50.3499C59.3584 55.1838 57.169 59.7155 54.7532 64.1717C52.4884 68.2502 50.148 72.3288 47.7322 76.3318C45.2409 80.3348 42.7496 84.3379 40.1073 88.1898C37.5405 92.0418 34.7472 95.8937 32.1049 99.7457C31.9539 99.8212 31.8784 99.8968 31.7274 100.048ZM12.0988 35.2442C12.0988 39.7759 13.0048 42.8726 14.6656 45.7427C17.7609 51.0297 22.4416 54.2019 28.4056 55.3348C33.1618 56.2412 37.6915 55.4859 41.9191 53.1445C46.9018 50.4255 50.1481 46.2714 51.5824 40.8333C52.9413 35.3197 51.9599 30.1082 48.6382 25.4255C45.5429 20.9693 41.1642 18.3258 35.8796 17.3439C31.1234 16.4376 26.5183 17.1173 22.2906 19.5342C15.7226 23.1596 12.3253 28.8243 12.0988 35.2442Z" fill="#7350FC"></path></svg>